<svg width="15" height="15" viewBox="0 0 15 15" fill="none" xmlns="http://www.w3.org/2000/svg">
<path d="M3.79938 14.0626C3.7996 13.814 3.89851 13.5757 4.07438 13.4001L8.86938 8.60507C9.01451 8.45997 9.12964 8.28771 9.20819 8.09811C9.28674 7.90851 9.32717 7.7053 9.32717 7.50007C9.32717 7.29485 9.28674 7.09163 9.20819 6.90203C9.12964 6.71244 9.01451 6.54017 8.86938 6.39507L4.08063 1.6032C3.90985 1.42638 3.81536 1.18957 3.8175 0.943758C3.81963 0.697949 3.91823 0.462812 4.09205 0.288992C4.26587 0.115172 4.501 0.0165758 4.74681 0.0144397C4.99262 0.0123037 5.22944 0.106798 5.40625 0.277572L10.195 5.0657C10.8389 5.71086 11.2005 6.58513 11.2005 7.49663C11.2005 8.40814 10.8389 9.28241 10.195 9.92757L5.4 14.7226C5.26908 14.8536 5.10228 14.9429 4.92066 14.9792C4.73903 15.0155 4.55073 14.9972 4.3795 14.9266C4.20826 14.856 4.06178 14.7362 3.95854 14.5825C3.85529 14.4287 3.79991 14.2478 3.79938 14.0626Z" fill="white"/>
</svg>
