<svg width="30" height="30" viewBox="0 0 30 30" fill="none" xmlns="http://www.w3.org/2000/svg">
<path d="M2.30086 2.40751L3.66393 1.22033C5.37714 -0.42922 8.11578 -0.416724 9.854 1.3203L12.4426 4.11954C13.2679 4.94432 13.7306 6.04402 13.7306 7.2187C13.7306 8.39338 13.2804 9.48058 12.4551 10.3054L11.9549 10.8052C13.543 14.1543 15.919 16.5287 19.1579 18.0283L19.6706 17.5284C20.4959 16.7036 21.5964 16.2537 22.7594 16.2537C23.9224 16.2537 25.0228 16.7036 25.8106 17.4909L28.7118 20.1777C29.5372 21.0024 29.9999 22.1021 29.9999 23.2768C29.9999 24.4515 29.5622 25.5012 28.7744 26.3135C28.7744 26.3135 27.6114 27.6506 27.5864 27.6756C26.0858 29.1752 24.0599 30 21.884 30C12.4801 30 -9.35065e-05 17.5284 -9.35065e-05 8.13095C-9.35065e-05 5.95654 0.825248 3.93209 2.32587 2.4325L2.30086 2.40751ZM21.859 26.226C23.0095 26.226 24.0849 25.8011 24.8727 25.0388C24.8727 25.0388 26.0232 23.7142 26.0607 23.6892C26.2233 23.5268 26.2483 23.3393 26.2483 23.2518C26.2483 23.1644 26.2233 22.9644 26.1108 22.8644L23.2096 20.1777C23.047 20.0152 22.8594 19.9902 22.7719 19.9902C22.6843 19.9902 22.4843 20.0152 22.3342 20.1777L20.9211 21.5773C20.3959 22.0897 19.6206 22.2521 18.9328 21.9897C13.8056 20.0402 10.1291 16.3662 8.01574 11.0926C7.74062 10.4053 7.89069 9.60555 8.4159 9.08069L9.81649 7.65608C9.97906 7.49362 10.0041 7.30617 10.0041 7.2187C10.0041 7.13122 9.97905 6.93128 9.76647 6.73133L7.17789 3.93209C6.92779 3.69466 6.54012 3.69466 6.29002 3.93209C6.26501 3.95709 4.93946 5.11927 4.93946 5.11927C4.17664 5.90656 3.75147 6.96877 3.75147 8.13095C3.75147 16.1288 14.9936 26.251 21.884 26.251L21.859 26.226Z" fill="black"/>
</svg>
