<?xml version="1.0" encoding="UTF-8"?>
<svg id="_Слой_1" data-name="Слой 1" xmlns="http://www.w3.org/2000/svg" viewBox="0 0 112.04 112.04">
  <defs>
    <style>
      .cls-1 {
        fill: #4d76a4;
      }

      .cls-1, .cls-2 {
        stroke-width: 0px;
      }

      .cls-2 {
        fill: #fff;
      }
    </style>
  </defs>
  <path class="cls-1" d="m112.04,56.02c0,30.94-25.08,56.02-56.02,56.02S0,86.96,0,56.02,25.08,0,56.02,0s56.02,25.08,56.02,56.02Z"/>
  <path class="cls-2" d="m88.36,40.78c-.91-.77-4.41-.73-7.88-.72-3.55.02-7.07.04-7.88.36-.75.3-2.45,4.39-4.65,8.6-2.49,4.77-5.58,9.35-7.52,9.32-2.52-.04-1.94-7.87-1.79-13.62.1-3.81-.52-5-1.08-5.38-1.35-.9-5.01-1.79-5.01-1.79,0,0-10.97-.83-12.54,3.94,2.09.27,5.69-.39,4.3,14.34-.07.71-1.68,6.78-6.81-1.43-1.27-2.03-6.19-14.29-7.88-14.34-5.69-.15-11.26-.39-13.26.72-1.82,1.01,2.46,9.48,9.67,20.79,5.9,9.24,12.15,16.46,22.93,18.28,2.01.2,7.32.44,8.96-.36,1.14-.56-.25-8.57,3.58-9.32,1.72-.34,8.26,8.32,10.75,9.32,1.51.6,4.83.83,8.24.72,3.68-.12,7.84.32,8.24-2.15.9-5.53-11.1-12.71-11.46-16.13-.26-2.45,4.39-6.96,6.81-10.39,2.94-4.17,6.13-9.2,4.3-10.75Z"/>
</svg>