<?xml version="1.0" encoding="UTF-8"?>
<svg id="_Слой_1" data-name="Слой 1" xmlns="http://www.w3.org/2000/svg" viewBox="0 0 112.04 112.04">
  <defs>
    <style>
      .cls-1 {
        fill: #eb5b4c;
      }

      .cls-1, .cls-2 {
        stroke-width: 0px;
      }

      .cls-2 {
        fill: #fff;
      }
    </style>
  </defs>
  <path class="cls-1" d="m112.04,56.02c0,30.94-25.08,56.02-56.02,56.02S0,86.96,0,56.02,25.08,0,56.02,0s56.02,25.08,56.02,56.02Z"/>
  <path class="cls-2" d="m88.53,42.34s-.65-4.77-2.63-6.87c-2.52-2.75-5.35-2.77-6.64-2.93-9.29-.7-23.22-.7-23.22-.7h-.03s-13.93,0-23.22.7c-1.3.16-4.12.17-6.65,2.93-1.98,2.1-2.63,6.87-2.63,6.87,0,0-.67,5.6-.67,11.2v5.25c0,5.6.67,11.2.67,11.2,0,0,.65,4.77,2.63,6.87,2.53,2.76,5.85,2.67,7.32,2.95,5.31.53,22.56.7,22.56.7,0,0,13.94-.03,23.23-.72,1.29-.16,4.12-.17,6.64-2.93,1.99-2.1,2.63-6.87,2.63-6.87,0,0,.67-5.6.67-11.2v-5.25c0-5.6-.67-11.2-.67-11.2Zm-21.44,13.13l-17.92,9.68v-14.91s0-4.53,0-4.53l8.08,4.4,9.84,5.36Z"/>
</svg>